# xmcd
# 
# Track frame offsets:
#     150
#     3578
#     23046
#     46430
# 
# Disc length: 809
# 
# Revision: 0
# Processed by: cddbd v1.5.2PL0 Copyright (c) Steve Scherf et al.
# Submitted via: fre:ac v1.0.17
# 
DISCID=27032704
DTITLE=Maria Arnal i Marcel Bagés - Remescles, acoples i melismes
DYEAR=0
DGENRE=
TTITLE0=Polifonia
TTITLE1=Cant de Batre
TTITLE2=Ball de Vetlatori
TTITLE3=No he desitjat mai cap cos com el teu
EXTD=
EXTT0=
EXTT1=
EXTT2=
EXTT3=
PLAYORDER=
